<svg version="1.1" id="Layer_1" xmlns="http://www.w3.org/2000/svg" xmlns:xlink="http://www.w3.org/1999/xlink" x="0px" y="0px"
	 width="100%" viewBox="0 0 1024 640" enable-background="new 0 0 1024 640" xml:space="preserve">
<path fill="#000000" opacity="1.000000" stroke="none" 
	d="
M959.625000,1.000000 
	C960.096619,6.322249 960.164429,11.645241 960.301514,16.966450 
	C960.374512,19.800795 959.005188,20.623060 956.291138,20.625546 
	C909.662903,20.668238 863.034729,20.791336 816.406555,20.883177 
	C803.950256,20.907711 791.493835,20.886889 778.976135,20.203552 
	C780.016174,17.726732 781.881165,18.027538 783.476135,17.992170 
	C790.468628,17.837118 797.464050,17.824245 804.457703,17.713160 
	C822.105347,17.432848 839.752747,17.141550 857.399658,16.818148 
	C860.367981,16.763750 863.374268,16.797243 866.703064,15.381236 
	C862.413330,12.671968 857.383972,13.927447 852.941467,11.574346 
	C855.434082,9.201350 858.280457,9.800242 860.669861,9.645841 
	C878.619690,8.485948 896.586670,8.382878 914.517151,9.977911 
	C919.222412,10.396486 919.368530,11.063837 916.978088,15.669924 
	C920.093506,16.046265 922.979431,16.635859 925.877014,16.699684 
	C934.533508,16.890352 943.195679,16.808697 951.853088,16.971874 
	C955.455383,17.039772 957.064453,15.508839 956.983337,11.923976 
	C956.907959,8.595345 957.006531,5.262774 957.014282,1.465969 
	C957.750000,1.000000 958.500000,1.000000 959.625000,1.000000 
z"/>
<path fill="#000000" opacity="1.000000" stroke="none" 
	d="
M1.000000,18.333332 
	C5.649936,18.776186 10.257292,17.675425 14.898725,17.687124 
	C60.857849,17.803001 106.817192,17.834734 152.776489,17.870176 
	C158.765305,17.874794 164.718445,18.211432 170.618988,19.793293 
	C114.391060,20.298065 58.169666,21.754206 1.467118,20.031290 
	C1.000000,19.555555 1.000000,19.111111 1.000000,18.333332 
z"/>
<path fill="#000000" opacity="1.000000" stroke="none" 
	d="
M497.999878,509.401917 
	C395.681610,509.409119 293.863312,509.396759 192.045059,509.441833 
	C176.219147,509.448853 160.393616,509.784943 144.567459,509.838104 
	C136.722397,509.864471 136.698334,509.730042 136.697769,502.128479 
	C136.691910,422.973511 136.691940,343.818542 136.698242,264.663574 
	C136.698792,257.741272 136.724762,257.719696 143.601318,257.719818 
	C360.902527,257.723755 578.203735,257.731598 795.504944,257.742767 
	C802.244812,257.743103 802.277405,257.762604 802.278381,264.290436 
	C802.289795,344.111969 802.265808,423.933502 802.366882,503.754913 
	C802.372070,507.872345 801.532104,509.507294 796.927551,509.658478 
	C783.924377,510.085419 770.946716,509.487854 757.959167,509.472900 
	C671.472839,509.373291 584.986328,509.409302 497.999878,509.401917 
M798.697571,485.499329 
	C798.698242,413.178650 798.698914,340.857971 798.699829,268.537292 
	C798.699890,261.345245 798.700439,261.337555 791.719971,261.337555 
	C577.089294,261.337372 362.458649,261.338562 147.827988,261.340942 
	C140.312775,261.341034 140.305283,261.347473 140.304840,269.171753 
	C140.300583,345.158997 140.290848,421.146240 140.307159,497.133484 
	C140.309174,506.510681 139.153305,505.901947 149.279556,505.902649 
	C362.077179,505.917511 574.874817,505.922302 787.672424,505.927704 
	C789.505432,505.927765 791.347046,505.790466 793.169617,505.923767 
	C797.139587,506.214050 799.011658,504.764038 798.753052,500.492584 
	C798.471680,495.843933 798.694275,491.164734 798.697571,485.499329 
z"/>
<path fill="#000000" opacity="1.000000" stroke="none" 
	d="
M501.990173,18.022675 
	C516.884521,18.308870 531.248291,19.523312 545.664185,19.259096 
	C528.502136,21.361963 293.725250,21.442877 281.604523,19.555513 
	C283.672302,17.906637 285.796509,18.027573 287.803619,17.968222 
	C337.734192,16.491703 387.669464,17.113512 437.609772,17.191929 
	C458.917053,17.225388 480.190704,18.679337 501.990173,18.022675 
z"/>
<path fill="#000000" opacity="1.000000" stroke="none" 
	d="
M177.396240,340.692047 
	C183.966690,328.842773 194.627975,323.806183 206.876572,321.794189 
	C219.322617,319.749756 231.040115,322.375885 241.765411,329.129852 
	C244.905457,331.107208 247.611389,333.573517 249.729675,336.604706 
	C251.131165,338.610168 253.101196,340.841309 249.518097,342.744202 
	C246.741806,344.218628 244.326935,347.041321 241.262085,342.468323 
	C234.702682,332.681122 224.884430,329.955780 213.681137,331.303101 
	C206.565277,332.158875 200.669876,337.610077 199.378494,344.158234 
	C197.832489,351.997498 200.132675,356.831604 207.458252,361.194824 
	C212.057312,363.934082 216.962997,366.000183 221.971161,367.839752 
	C228.067001,370.078766 234.180664,372.246796 239.957703,375.282532 
	C259.862915,385.742371 262.826385,408.577393 246.187286,423.662781 
	C229.810638,438.510315 197.259308,438.491119 181.019363,423.624359 
	C175.580414,418.645294 175.817810,417.532623 181.934769,413.462494 
	C184.938049,411.464142 186.263062,412.937378 188.092224,414.961121 
	C197.821930,425.726074 211.277451,428.238647 223.357437,421.681519 
	C233.809341,416.008118 235.532410,402.304260 226.755234,394.225800 
	C221.709229,389.581482 215.349579,387.452271 209.008270,385.389923 
	C202.979645,383.429321 197.052856,381.248108 191.409119,378.341797 
	C175.075180,369.930542 170.639328,358.267731 177.396240,340.692047 
z"/>
<path fill="#000000" opacity="1.000000" stroke="none" 
	d="
M292.313599,341.000061 
	C292.313843,355.158997 292.437775,368.819763 292.236328,382.475677 
	C292.178253,386.412384 293.433746,387.818542 297.374939,387.681366 
	C304.196289,387.443970 311.036346,387.454559 317.859161,387.665497 
	C321.648224,387.782623 322.815887,386.245636 322.705139,382.645264 
	C322.515747,376.488190 322.801392,370.316772 322.623474,364.158997 
	C322.522247,360.656952 323.918945,359.619751 327.316986,359.544067 
	C340.385986,359.252991 340.386505,359.150848 340.387482,372.033966 
	C340.388855,389.857208 340.235077,407.682495 340.482391,425.502289 
	C340.550232,430.388489 339.320770,432.358948 334.095459,432.181519 
	C320.671143,431.725677 322.862152,433.489288 322.682983,420.687317 
	C322.585114,413.692596 322.545837,406.693115 322.697937,399.700531 
	C322.768524,396.455139 321.555634,395.245178 318.319672,395.309082 
	C311.159973,395.450562 303.991913,395.474792 296.834259,395.284302 
	C293.279297,395.189667 292.206909,396.643250 292.260162,400.017975 
	C292.402069,409.010498 292.190948,418.008728 292.342316,427.000946 
	C292.402557,430.580688 291.187866,432.009277 287.477173,432.131683 
	C274.570404,432.557434 274.640686,432.667511 274.584076,419.957275 
	C274.465424,393.310913 274.225586,366.665039 274.133026,340.018646 
	C274.107025,332.528900 274.531982,325.037872 274.525818,317.547607 
	C274.523163,314.331329 275.844391,313.212494 278.939453,312.982361 
	C292.326385,311.987122 292.322845,311.921295 292.323914,325.008453 
	C292.324341,330.172333 292.317230,335.336182 292.313599,341.000061 
z"/>
<path fill="#000000" opacity="1.000000" stroke="none" 
	d="
M554.130249,410.345825 
	C539.511353,413.392761 539.523499,413.388580 534.804016,399.625824 
	C532.106323,391.758881 529.365601,383.906647 526.633728,376.051422 
	C526.148682,374.656738 525.832764,373.145599 524.192932,372.190613 
	C522.651306,373.439850 523.327759,375.190216 523.319946,376.675354 
	C523.263245,387.497070 523.172852,398.320892 523.339294,409.140259 
	C523.398621,412.992462 522.054077,414.413177 518.145935,414.480530 
	C514.013062,414.551758 513.589905,412.420593 513.612671,409.173340 
	C513.701416,396.520477 513.589478,383.866211 513.688049,371.213470 
	C513.746948,363.651489 516.868347,359.776184 523.641296,358.354614 
	C531.472473,356.710938 537.941162,359.453644 540.601685,366.135529 
	C545.144409,377.544495 549.348877,389.088196 554.274475,402.105774 
	C557.376648,392.672974 560.037659,384.591339 562.691406,376.507294 
	C563.625122,373.662872 564.461426,370.783691 565.480652,367.970551 
	C568.259033,360.302856 573.148743,357.180847 580.695496,358.148987 
	C589.322632,359.255768 594.810547,364.184875 595.167175,372.027283 
	C595.544983,380.334778 595.236816,388.672241 595.297546,396.996094 
	C595.314941,399.382751 594.205322,400.719330 591.986877,401.295990 
	C591.664856,401.379669 591.350403,401.492157 591.030212,401.583374 
	C575.787842,405.926575 577.924988,407.230652 577.804077,392.159271 
	C577.762695,386.998413 577.848816,381.835999 577.759705,376.676300 
	C577.729797,374.948090 578.384460,372.966309 576.391357,371.474640 
	C573.632690,372.325500 573.088501,374.884796 572.327942,377.156525 
	C569.581604,385.358887 566.619629,393.508484 564.352356,401.844788 
	C562.893921,407.206635 560.308716,410.350830 554.130249,410.345825 
z"/>
<path fill="#000000" opacity="1.000000" stroke="none" 
	d="
M489.668182,410.361145 
	C490.550385,411.781342 491.385956,412.851593 491.115723,414.760681 
	C485.025940,415.896759 479.010773,414.665161 473.002930,414.019287 
	C472.329987,413.946930 471.563873,413.131714 471.155060,412.467621 
	C467.945496,407.254333 464.591553,402.114502 462.075562,396.454071 
	C463.908356,394.834045 466.035065,395.319336 467.901642,394.959900 
	C474.912628,393.609772 479.445801,388.589600 479.760742,381.563385 
	C480.094147,374.125458 476.554626,369.275726 469.373749,367.105865 
	C465.445496,365.918854 461.448639,366.309357 457.467102,366.312469 
	C453.813629,366.315308 454.384552,369.091278 454.381317,371.349365 
	C454.356110,389.008942 454.365417,406.668518 454.362122,424.328125 
	C454.360657,432.101074 454.358582,432.107849 446.810333,432.089874 
	C434.929932,432.061615 436.736633,432.611755 436.689667,421.856506 
	C436.607513,403.031067 436.777649,384.203888 436.590485,365.379944 
	C436.547272,361.034393 437.893799,359.496399 442.303680,359.616852 
	C452.125916,359.885223 461.961090,359.632690 471.789276,359.744049 
	C478.583801,359.820984 485.014618,361.380249 490.579773,365.514557 
	C502.135468,374.099182 500.586060,388.833282 487.529816,394.697571 
	C485.737122,395.502777 483.898438,396.205566 481.828918,397.059784 
	C483.619019,402.063324 487.038605,405.781982 489.668182,410.361145 
z"/>
<path fill="#000000" opacity="1.000000" stroke="none" 
	d="
M688.654907,351.508362 
	C684.692261,348.971863 681.050903,346.628418 677.399353,344.300964 
	C675.981323,343.397156 674.293091,342.543701 674.770142,340.516937 
	C675.263123,338.422638 677.088440,337.743744 679.015198,337.712952 
	C683.345154,337.643799 687.682434,337.595062 692.006836,337.775482 
	C695.034973,337.901825 697.465088,337.026886 699.696777,334.966644 
	C711.441406,324.123993 723.199646,313.294800 735.070312,302.590820 
	C739.380981,298.703766 743.326599,294.309753 748.527222,291.521271 
	C754.400269,288.372314 760.836853,288.108856 762.983276,291.278320 
	C766.651062,296.694336 762.279968,300.249176 759.269836,303.843872 
	C757.254517,306.250610 754.999451,308.587402 752.453308,310.394073 
	C745.155640,315.572388 742.565186,322.702759 742.276550,331.348694 
	C741.949158,341.154022 741.004517,350.939850 740.270386,360.729858 
	C739.988159,364.492584 738.841736,367.915771 735.722900,370.362518 
	C734.581604,371.257874 733.617554,372.771729 731.873535,372.135834 
	C730.200867,371.526001 730.093018,369.825348 729.882263,368.378937 
	C728.779236,360.810181 727.726929,353.233856 726.698364,345.654541 
	C726.324402,342.898621 726.114197,340.114685 724.967407,337.572540 
	C722.147949,337.444824 720.913879,339.545074 719.291138,340.790619 
	C713.462036,345.264374 707.488892,349.420044 700.707825,352.407135 
	C696.537476,354.244141 692.735474,354.477081 688.654907,351.508362 
z"/>
<path fill="#000000" opacity="1.000000" stroke="none" 
	d="
M380.032928,410.342041 
	C366.259949,410.714935 369.108795,407.956146 364.855774,421.171387 
	C364.092072,423.544464 363.192871,425.886780 362.620667,428.305817 
	C361.579742,432.706421 358.221252,432.568878 355.144867,431.823334 
	C351.703064,430.989197 353.677338,428.301849 354.233368,426.511414 
	C358.964966,411.275299 363.802795,396.072113 368.638336,380.868469 
	C369.997894,376.593964 371.270813,372.277985 372.909943,368.109375 
	C375.571686,361.339966 380.757660,357.983582 388.007507,357.962158 
	C395.785828,357.939178 400.293854,360.881470 403.062836,368.639832 
	C409.989929,388.048767 416.585876,407.575653 423.446289,427.008789 
	C424.821075,430.903076 423.588837,431.994019 419.751740,432.148438 
	C405.917175,432.705048 405.915375,432.792175 401.760895,420.015778 
	C398.020142,408.511719 399.529480,410.573273 388.509949,410.355011 
	C385.849213,410.302307 383.186584,410.343445 380.032928,410.342041 
M372.536407,397.694672 
	C372.236145,399.563721 371.058807,401.947937 374.485168,401.992004 
	C381.229034,402.078857 387.974823,402.017609 394.663483,402.017609 
	C394.830872,400.807068 395.071045,400.270905 394.938385,399.853180 
	C391.980896,390.541199 388.999390,381.236664 385.971558,371.947357 
	C385.556000,370.672424 384.854492,369.361053 383.206329,369.587891 
	C381.427795,369.832642 380.986816,371.464600 380.535309,372.852539 
	C377.921661,380.886963 375.372192,388.942200 372.536407,397.694672 
z"/>
<path fill="#000000" opacity="1.000000" stroke="none" 
	d="
M656.100159,421.768402 
	C651.599548,407.857971 653.916199,410.671417 641.276855,410.354736 
	C637.613770,410.262970 633.946045,410.318634 630.280945,410.356781 
	C620.175537,410.461975 622.709778,409.470032 619.522583,418.381561 
	C618.346375,421.670166 617.316162,425.022339 616.436218,428.402039 
	C615.717773,431.161407 614.029480,432.066223 611.339355,432.106934 
	C607.719055,432.161713 606.527832,430.922760 607.753418,427.275696 
	C610.192078,420.018951 612.737427,412.765442 614.557495,405.343536 
	C616.072449,399.165771 620.491577,397.714172 625.431580,396.482758 
	C626.959839,398.328583 625.153625,399.964539 625.836243,401.848938 
	C633.385742,401.848938 640.978638,401.848938 648.936218,401.848938 
	C649.267761,397.438965 646.729248,393.716980 645.636536,389.678375 
	C644.907654,386.984680 645.261292,385.350311 647.787170,383.945221 
	C651.529541,381.863495 655.098938,379.470886 659.664856,376.638153 
	C666.093262,395.049805 672.292114,412.804199 678.738098,431.266174 
	C672.275696,432.573120 666.545410,432.316345 660.861877,431.671814 
	C658.759521,431.433350 658.571899,429.043335 657.964966,427.353668 
	C657.346252,425.631256 656.801880,423.882141 656.100159,421.768402 
z"/>
<path fill="#000000" opacity="1.000000" stroke="none" 
	d="
M524.806030,467.926147 
	C524.817871,459.947662 524.899902,452.458069 524.810303,444.970459 
	C524.770081,441.611145 526.210999,440.038605 529.545410,440.080109 
	C532.539551,440.117371 535.544067,439.940643 538.526855,440.129730 
	C542.867798,440.404846 546.738159,441.553253 548.331055,446.350861 
	C549.950195,451.227386 549.179443,455.513489 545.550964,459.212921 
	C544.977600,459.797485 544.349121,460.327881 543.526672,461.085541 
	C545.791443,465.331421 548.025146,469.519012 550.898010,474.904999 
	C554.112488,464.519836 556.962830,455.260712 559.854065,446.014374 
	C560.393250,444.289764 560.554382,442.339966 561.999023,441.047852 
	C564.234436,439.048370 568.249939,440.068939 569.260742,443.114685 
	C572.559326,453.053833 575.677124,463.053131 578.836548,473.038116 
	C579.385864,474.774384 579.452332,476.431427 577.102234,476.861206 
	C574.674561,477.305145 572.516296,476.630768 572.069214,474.044983 
	C571.149963,468.728119 567.442627,468.897095 563.437317,469.000519 
	C560.907471,469.065796 559.310730,469.910248 558.777283,472.465820 
	C558.168579,475.381958 556.747253,477.437469 553.375122,477.060516 
	C549.349426,476.610504 544.491211,478.909698 541.947876,473.483215 
	C540.679382,470.776642 539.137207,468.196808 537.684937,465.578430 
	C536.695862,463.795258 535.585999,461.845001 533.156128,462.496368 
	C530.954834,463.086487 531.826355,465.290192 531.647278,466.797699 
	C531.393311,468.934418 531.425415,471.115601 531.473450,473.274750 
	C531.519836,475.360718 531.111633,476.926941 528.584229,476.956635 
	C526.161133,476.985077 524.814087,475.947113 524.832886,473.407898 
	C524.845154,471.744019 524.816589,470.079865 524.806030,467.926147 
M531.692688,448.827942 
	C531.470581,450.938202 530.650452,453.645416 533.021851,454.598145 
	C535.393616,455.551025 538.348328,455.589996 540.688843,453.981415 
	C542.249268,452.908966 542.207764,451.013763 541.474426,449.432007 
	C540.211914,446.708801 537.584839,447.422760 535.333618,447.343567 
	C534.183960,447.303101 532.979919,447.242920 531.692688,448.827942 
M566.302368,455.518677 
	C565.736633,454.812988 566.163330,453.422272 564.565613,453.234406 
	C563.620117,455.777679 562.273010,458.218719 562.759705,461.038818 
	C564.412109,461.950653 565.785278,461.996613 567.121155,460.998322 
	C567.901550,459.238434 566.669373,457.767975 566.302368,455.518677 
z"/>
<path fill="#000000" opacity="1.000000" stroke="none" 
	d="
M441.419037,460.090088 
	C439.773712,463.110962 442.617889,464.394897 443.392700,466.408569 
	C444.621307,469.601471 446.869751,472.384003 447.518951,476.102997 
	C443.584564,477.870117 440.755829,477.316193 438.805267,473.385468 
	C437.330475,470.413483 435.675720,467.526978 434.011719,464.654175 
	C433.128143,463.128662 431.766785,462.020355 429.909943,462.523499 
	C427.970154,463.049194 428.438171,464.885620 428.385498,466.302826 
	C428.299225,468.625275 428.324982,470.952789 428.341370,473.277893 
	C428.356293,475.395660 427.630127,476.838531 425.253265,476.891479 
	C422.662231,476.949249 421.760315,475.471313 421.762848,473.110565 
	C421.773376,463.310944 421.787994,453.511230 421.754517,443.711731 
	C421.745697,441.133759 423.170746,440.140991 425.481659,440.095062 
	C428.469452,440.035706 431.468689,439.920349 434.445831,440.105408 
	C439.019592,440.389709 443.501617,440.975037 445.193207,446.370483 
	C446.844269,451.636566 446.014404,456.193939 441.419037,460.090088 
M430.936768,447.380768 
	C427.353699,447.989166 428.254089,450.795593 428.601501,452.862671 
	C429.064606,455.618347 431.629883,454.897369 433.495026,454.922852 
	C435.620392,454.951935 438.079742,455.125458 438.660461,452.257141 
	C439.141174,449.882690 438.508362,447.882568 435.723877,447.458984 
	C434.424347,447.261353 433.077576,447.374237 430.936768,447.380768 
z"/>
<path fill="#000000" opacity="1.000000" stroke="none" 
	d="
M477.306732,459.915985 
	C478.408600,461.117828 478.829590,460.107941 479.456360,459.662903 
	C481.153381,458.457825 482.705780,459.448486 484.059753,460.292145 
	C485.474579,461.173706 484.981812,462.664062 484.474884,463.906952 
	C483.467896,466.375977 483.043945,468.599518 485.555206,470.580109 
	C487.542603,472.147583 486.378082,473.808075 485.266968,475.368439 
	C484.060974,477.062103 482.624084,477.357391 481.052307,476.003632 
	C479.527618,474.690521 478.261810,475.057343 476.552368,475.857391 
	C470.826447,478.537445 465.843781,477.746429 462.893066,474.021851 
	C459.375732,469.582092 459.083191,463.278381 463.007202,458.813232 
	C465.402649,456.087402 465.476990,453.893097 464.319397,450.776215 
	C462.821869,446.743835 463.916534,443.072113 467.727448,440.826172 
	C471.028381,438.880859 474.597168,439.028320 477.458191,441.721832 
	C480.733032,444.804962 481.102417,448.586151 479.243622,452.707153 
	C478.248169,454.914124 474.887573,456.480804 477.306732,459.915985 
M469.067169,470.434631 
	C471.194336,470.931976 472.956207,470.504028 474.215576,468.330597 
	C473.189911,465.821045 471.980988,463.403229 469.596466,461.513245 
	C466.579315,464.224854 465.666870,466.916046 469.067169,470.434631 
M471.221375,446.035187 
	C469.513580,448.112030 470.640381,449.535492 472.181824,450.982300 
	C475.291931,447.711060 475.291931,447.711060 471.221375,446.035187 
z"/>
<path fill="#000000" opacity="1.000000" stroke="none" 
	d="
M608.471924,476.999756 
	C605.416077,476.545227 605.048035,474.607910 605.054993,472.496063 
	C605.086609,462.847931 605.165588,453.199951 605.190308,443.551819 
	C605.196228,441.233032 606.434143,440.178650 608.575256,440.143829 
	C613.567383,440.062531 618.560974,440.063324 623.554016,440.056824 
	C626.292297,440.053284 627.352722,441.481476 627.261780,444.175568 
	C627.165710,447.021179 625.362915,447.304688 623.196106,447.294220 
	C621.198364,447.284576 619.199402,447.264374 617.203064,447.321686 
	C614.952454,447.386261 612.290161,446.757019 612.234192,450.466370 
	C612.174744,454.409607 614.977478,453.908539 617.435791,453.991425 
	C619.265320,454.053162 621.098694,454.022858 622.926392,454.114227 
	C625.073303,454.221527 626.257629,455.232300 626.254395,457.561920 
	C626.250977,460.025543 625.247437,461.300262 622.708069,461.266693 
	C620.710999,461.240326 618.705688,461.403839 616.717102,461.277588 
	C613.657227,461.083313 612.104492,462.065674 612.114563,465.462250 
	C612.124207,468.728882 613.408997,470.001038 616.589111,469.793549 
	C618.744385,469.652924 620.916077,469.774719 623.080139,469.754883 
	C625.560730,469.732147 627.881348,469.898010 627.972778,473.233704 
	C628.072632,476.879852 625.568542,477.084747 622.907166,477.079865 
	C618.245789,477.071350 613.584351,477.056152 608.471924,476.999756 
z"/>
<path fill="#000000" opacity="1.000000" stroke="none" 
	d="
M371.046143,440.476807 
	C380.928619,438.382782 387.343689,442.653931 389.374451,452.052185 
	C390.607239,457.757507 390.490601,463.310394 388.246490,468.720520 
	C385.716888,474.818817 381.461060,477.529480 375.032715,477.306244 
	C369.642517,477.119019 365.277374,473.724762 363.195801,468.101990 
	C359.164581,457.212860 362.297974,445.696350 371.046143,440.476807 
M373.309906,447.518951 
	C368.666809,451.107208 367.187469,457.691254 369.412933,464.539246 
	C370.474365,467.805359 372.366486,470.401581 375.993408,470.228027 
	C379.758057,470.047852 381.845398,467.290161 382.550812,463.785797 
	C383.204163,460.540070 383.182281,457.189697 382.653870,453.907349 
	C381.857727,448.961761 379.407410,447.144745 373.309906,447.518951 
z"/>
<path fill="#000000" opacity="1.000000" stroke="none" 
	d="
M648.735229,376.881226 
	C642.690552,380.125977 642.729492,380.112061 640.565979,374.047699 
	C639.925232,372.251709 639.721130,369.610291 637.202209,369.691071 
	C634.769226,369.769165 634.581543,372.347168 633.946838,374.183533 
	C633.131653,376.542114 632.391418,378.926514 631.611694,381.297394 
	C629.706421,387.090820 627.204651,389.025665 619.503906,390.043030 
	C622.940002,380.740875 623.984192,370.974854 629.856812,363.123810 
	C633.740417,357.931854 639.625427,357.451141 645.738281,358.378754 
	C651.833984,359.303772 654.846985,363.339539 656.859375,368.603668 
	C657.658997,370.695465 656.953491,372.138641 655.116943,373.195648 
	C653.097290,374.358093 651.081848,375.528015 648.735229,376.881226 
z"/>
<path fill="#000000" opacity="1.000000" stroke="none" 
	d="
M674.867798,443.228516 
	C675.593933,444.409119 676.208435,445.237244 676.525452,446.166870 
	C677.097534,447.844452 678.183594,449.932648 675.903870,450.953766 
	C674.142822,451.742554 672.015564,451.930939 670.575684,449.783997 
	C669.946106,448.845215 669.152710,447.896576 668.210510,447.312134 
	C666.260620,446.102631 664.158936,446.294952 662.928162,448.266998 
	C661.441467,450.649170 663.214966,451.967834 665.195068,452.802582 
	C667.336243,453.705322 669.624878,454.272400 671.729614,455.244720 
	C676.828613,457.600342 679.264771,462.839447 678.068909,468.509735 
	C676.849304,474.292816 673.183472,477.241211 667.078796,477.349152 
	C660.782959,477.460419 656.706421,474.551331 655.177917,468.857208 
	C654.687988,467.031982 654.162537,465.130707 656.556091,464.244659 
	C658.647888,463.470276 660.475647,463.610260 661.394531,466.142670 
	C661.970764,467.730896 662.901184,469.113037 664.518677,469.877930 
	C667.295959,471.191345 669.441650,470.225342 670.870972,467.794586 
	C672.397095,465.199097 670.599060,463.758972 668.553894,462.696167 
	C667.383423,462.087982 666.076294,461.727509 664.808960,461.323822 
	C660.094055,459.821930 656.243408,457.454437 655.725403,451.946838 
	C655.314148,447.575317 655.921387,443.426483 660.298889,441.208435 
	C665.345764,438.651215 670.259521,438.913483 674.867798,443.228516 
z"/>
<path fill="#000000" opacity="1.000000" stroke="none" 
	d="
M406.728424,477.298035 
	C397.551056,477.189423 393.918884,473.734833 393.686890,464.961914 
	C393.511261,458.318970 393.618408,451.668671 393.587524,445.021698 
	C393.576324,442.609467 393.447052,440.124146 396.979645,440.268890 
	C400.432892,440.410400 400.205109,442.968994 400.216187,445.313660 
	C400.244507,451.297058 400.271729,457.280792 400.237213,463.264038 
	C400.215790,466.975952 401.165558,470.334351 405.492493,470.160828 
	C409.648712,469.994141 409.973297,466.433563 409.964874,463.094757 
	C409.950195,457.277466 409.920990,451.459778 409.973663,445.642944 
	C409.996155,443.158844 409.762268,440.302094 413.458466,440.228271 
	C417.118652,440.155243 417.089874,442.859528 417.133240,445.447418 
	C417.258514,452.926758 417.101227,460.394958 416.332794,467.842346 
	C415.767975,473.316345 413.218842,475.946564 406.728424,477.298035 
z"/>
<path fill="#000000" opacity="1.000000" stroke="none" 
	d="
M589.200562,477.002838 
	C586.600037,476.728027 585.773682,475.158173 585.255188,473.297821 
	C582.620117,463.844666 579.980713,454.392731 577.360535,444.935394 
	C576.882263,443.209076 575.893555,441.180542 578.575623,440.428497 
	C581.160767,439.703613 583.232056,440.507782 584.020752,443.308716 
	C585.810852,449.665771 587.539062,456.040283 589.584290,463.467834 
	C592.439270,457.477905 593.133240,452.039185 594.689697,446.877747 
	C595.169434,445.286957 595.406677,443.586060 596.118408,442.110931 
	C597.190674,439.888641 599.294189,439.891907 601.308899,440.493286 
	C603.292175,441.085205 602.979248,442.657501 602.540405,444.187042 
	C599.697632,454.096924 596.858643,464.007935 594.026794,473.920959 
	C593.386230,476.162872 591.954773,477.245483 589.200562,477.002838 
z"/>
<path fill="#000000" opacity="1.000000" stroke="none" 
	d="
M595.317139,426.823242 
	C595.758484,431.132355 593.741577,432.215027 590.271790,432.146820 
	C576.019409,431.866608 577.920166,433.745209 577.805359,420.109680 
	C577.741943,412.577087 577.783264,412.513184 585.198975,410.580170 
	C588.202148,409.797302 591.071899,408.282196 595.320740,408.546906 
	C595.320740,414.526031 595.320740,420.435150 595.317139,426.823242 
z"/>
<path fill="#000000" opacity="1.000000" stroke="none" 
	d="
M506.930206,465.944702 
	C506.931946,460.968048 506.875000,456.480194 506.960052,451.995026 
	C507.014587,449.118866 506.419189,447.036652 502.890839,447.284119 
	C500.363220,447.461395 498.723419,446.606293 498.827667,443.648315 
	C498.932495,440.672974 500.883636,440.115601 503.210968,440.092621 
	C508.194885,440.043396 513.180298,440.050018 518.164001,440.117554 
	C520.620605,440.150848 522.275696,441.067047 522.195801,443.978699 
	C522.121582,446.684601 520.584717,447.437836 518.299072,447.271667 
	C514.937439,447.027222 514.002563,448.751740 514.049561,451.804932 
	C514.151917,458.450134 514.081299,465.098358 514.044983,471.745148 
	C514.030945,474.305725 514.066406,477.050476 510.360565,476.924286 
	C507.078125,476.812561 506.963104,474.350586 506.944550,471.918365 
	C506.930634,470.090546 506.935303,468.262543 506.930206,465.944702 
z"/>
<path fill="#000000" opacity="1.000000" stroke="none" 
	d="
M345.704742,461.008789 
	C345.706024,458.350525 345.597260,456.181244 345.732544,454.027283 
	C345.983032,450.038147 345.934448,446.512360 340.264496,447.163818 
	C338.415833,447.376221 337.733490,445.919495 337.701019,444.202515 
	C337.668518,442.483948 337.638641,440.575256 339.855103,440.348633 
	C345.983185,439.722046 352.138336,439.818604 358.273254,440.292572 
	C360.376434,440.455078 360.838501,442.148071 360.763519,443.962158 
	C360.685883,445.841339 359.889282,447.424408 357.809937,447.177826 
	C352.142975,446.505890 352.196045,450.020996 352.299927,454.017883 
	C352.459808,460.168121 352.326752,466.325653 352.349762,472.479950 
	C352.358459,474.811890 352.162384,476.924713 349.055237,476.912170 
	C345.998810,476.899841 345.691986,474.834961 345.705200,472.482727 
	C345.725739,468.823486 345.706940,465.164032 345.704742,461.008789 
z"/>
<path fill="#000000" opacity="1.000000" stroke="none" 
	d="
M651.288269,470.173523 
	C653.749512,475.440277 652.983704,476.915222 648.013916,477.058716 
	C644.189209,477.169189 640.356995,477.011353 636.531311,477.103241 
	C633.247681,477.182129 631.639587,475.929626 631.683838,472.426300 
	C631.799438,463.274078 631.731567,454.119354 631.715637,444.965698 
	C631.711487,442.583191 632.041687,440.663666 635.168762,440.711578 
	C638.419922,440.761475 638.356689,442.932526 638.357788,445.170258 
	C638.361145,451.827515 638.492615,458.488434 638.308899,465.140564 
	C638.213806,468.583862 639.418701,470.018829 642.921570,469.803619 
	C645.564026,469.641296 648.233337,469.915436 651.288269,470.173523 
z"/>
<path fill="#000000" opacity="1.000000" stroke="none" 
	d="
M703.618286,321.608887 
	C700.099792,320.402710 696.926636,319.417419 693.812927,318.270782 
	C689.148499,316.553192 688.888794,314.631897 692.758057,311.361572 
	C695.007324,309.460449 697.517761,308.423218 700.528015,308.661163 
	C705.486816,309.053162 710.451965,309.362823 715.413818,309.717010 
	C717.247864,309.847931 718.858276,310.278503 718.183899,312.687927 
	C717.251099,316.020691 707.565247,322.166473 703.618286,321.608887 
z"/>
<path fill="#000000" opacity="1.000000" stroke="none" 
	d="
M487.450836,422.094177 
	C498.300293,421.975525 498.993317,422.402954 502.207611,431.596924 
	C495.712982,432.452972 489.305908,432.820679 483.155884,431.485016 
	C479.912964,430.780731 479.184143,426.586090 477.700562,423.397583 
	C480.817200,421.614227 484.036438,422.594910 487.450836,422.094177 
z"/>
<path fill="#000000" opacity="1.000000" stroke="none" 
	d="
M556.559204,425.421509 
	C555.458008,429.573639 553.935852,432.842316 549.166626,432.176575 
	C545.670166,431.688477 542.749268,425.618805 542.882385,419.220032 
	C547.886780,418.203583 552.885986,416.819061 558.167053,417.097015 
	C558.960327,420.263641 557.181519,422.532593 556.559204,425.421509 
z"/>
<path fill="#000000" opacity="1.000000" stroke="none" 
	d="
M513.672852,427.900269 
	C513.238037,423.854218 513.979492,421.330261 518.410583,421.311096 
	C520.651306,421.301453 523.188782,420.743805 523.113220,423.875763 
	C523.046631,426.636719 525.238770,430.721436 520.659668,431.750946 
	C517.966431,432.356476 513.995911,433.540070 513.672852,427.900269 
z"/>
</svg>